HIERARCHY
ROOT hip
{
  OFFSET 0 0 0
  CHANNELS 6 Xposition Yposition Zposition Zrotation Yrotation Xrotation
  JOINT abdomen
  {
    OFFSET 0 20.6881 -0.73152
    CHANNELS 3 Zrotation Xrotation Yrotation
    JOINT chest
    {
      OFFSET 0 11.7043 -0.48768
      CHANNELS 3 Zrotation Xrotation Yrotation
      JOINT neck
      {
        OFFSET 0 22.1894 -2.19456
        CHANNELS 3 Zrotation Xrotation Yrotation
        JOINT head
        {
          OFFSET -0.24384 7.07133 1.2192
          CHANNELS 3 Zrotation Xrotation Yrotation
          JOINT leftEye
          {
            OFFSET 4.14528 8.04674 8.04672
            CHANNELS 3 Zrotation Xrotation Yrotation
            End Site
            {
              OFFSET 1 0 0
            }
          }
          JOINT rightEye
          {
            OFFSET -3.6576 8.04674 8.04672
            CHANNELS 3 Zrotation Xrotation Yrotation
            End Site
            {
              OFFSET 1 0 0
            }
          }
        }
      }
      JOINT rCollar
      {
        OFFSET -2.68224 19.2634 -4.8768
        CHANNELS 3 Zrotation Xrotation Yrotation
        JOINT rShldr
        {
          OFFSET -8.77824 -1.95073 1.46304
          CHANNELS 3 Zrotation Xrotation Yrotation
          JOINT rForeArm
          {
            OFFSET -28.1742 -1.7115 0.48768
            CHANNELS 3 Zrotation Xrotation Yrotation
            JOINT rHand
            {
              OFFSET -22.5879 0.773209 7.07136
              CHANNELS 3 Zrotation Xrotation Yrotation
              JOINT rThumb1
              {
                OFFSET -1.2192 -0.487915 3.41376
                CHANNELS 3 Zrotation Xrotation Yrotation
                JOINT rThumb2
                {
                  OFFSET -3.37035 -0.52449 3.41376
                  CHANNELS 3 Zrotation Xrotation Yrotation
                  End Site
                  {
                    OFFSET -1.78271 -1.18214 1.43049
                  }
                }
              }
              JOINT rIndex1
              {
                OFFSET -7.75947 0.938293 5.60832
                CHANNELS 3 Zrotation Xrotation Yrotation
                JOINT rIndex2
                {
                  OFFSET -2.54057 -0.884171 1.56538
                  CHANNELS 3 Zrotation Xrotation Yrotation
                  End Site
                  {
                    OFFSET -1.62519 -0.234802 1.16502
                  }
                }
              }
              JOINT rMid1
              {
                OFFSET -8.24714 1.18213 3.41376
                CHANNELS 3 Zrotation Xrotation Yrotation
                JOINT rMid2
                {
                  OFFSET -3.10165 -0.590103 1.0647
                  CHANNELS 3 Zrotation Xrotation Yrotation
                  End Site
                  {
                    OFFSET -2.48547 -0.328903 0.83742
                  }
                }
              }
              JOINT rRing1
              {
                OFFSET -8.82822 0.546677 1.51678
                CHANNELS 3 Zrotation Xrotation Yrotation
                JOINT rRing2
                {
                  OFFSET -2.60934 -0.819778 -0.0198488
                  CHANNELS 3 Zrotation Xrotation Yrotation
                  End Site
                  {
                    OFFSET -2.33842 -0.294052 0.168128
                  }
                }
              }
              JOINT rPinky1
              {
                OFFSET -8.27202 -0.0477905 -0.4584
                CHANNELS 3 Zrotation Xrotation Yrotation
                JOINT rPinky2
                {
                  OFFSET -1.82734 -0.647385 -0.700984
                  CHANNELS 3 Zrotation Xrotation Yrotation
                  End Site
                  {
                    OFFSET -1.69225 -0.51767 -0.607171
                  }
                }
              }
            }
          }
        }
      }
      JOINT lCollar
      {
        OFFSET 2.68224 19.2634 -4.8768
        CHANNELS 3 Zrotation Xrotation Yrotation
        JOINT lShldr
        {
          OFFSET 8.77824 -1.95073 1.46304
          CHANNELS 3 Zrotation Xrotation Yrotation
          JOINT lForeArm
          {
            OFFSET 28.1742 -1.7115 0.48768
            CHANNELS 3 Zrotation Xrotation Yrotation
            JOINT lHand
            {
              OFFSET 22.5879 0.773209 7.07136
              CHANNELS 3 Zrotation Xrotation Yrotation
              JOINT lThumb1
              {
                OFFSET 1.2192 -0.487915 3.41376
                CHANNELS 3 Zrotation Xrotation Yrotation
                JOINT lThumb2
                {
                  OFFSET 3.37035 -0.52449 3.41376
                  CHANNELS 3 Zrotation Xrotation Yrotation
                  End Site
                  {
                    OFFSET 1.78271 -1.18214 1.43049
                  }
                }
              }
              JOINT lIndex1
              {
                OFFSET 7.75947 0.938293 5.60832
                CHANNELS 3 Zrotation Xrotation Yrotation
                JOINT lIndex2
                {
                  OFFSET 2.54057 -0.884171 1.56538
                  CHANNELS 3 Zrotation Xrotation Yrotation
                  End Site
                  {
                    OFFSET 1.62519 -0.234802 1.16502
                  }
                }
              }
              JOINT lMid1
              {
                OFFSET 8.24714 1.18213 3.41376
                CHANNELS 3 Zrotation Xrotation Yrotation
                JOINT lMid2
                {
                  OFFSET 3.10165 -0.590103 1.0647
                  CHANNELS 3 Zrotation Xrotation Yrotation
                  End Site
                  {
                    OFFSET 2.48547 -0.328903 0.83742
                  }
                }
              }
              JOINT lRing1
              {
                OFFSET 8.82822 0.546677 1.51678
                CHANNELS 3 Zrotation Xrotation Yrotation
                JOINT lRing2
                {
                  OFFSET 2.60934 -0.819778 -0.0198488
                  CHANNELS 3 Zrotation Xrotation Yrotation
                  End Site
                  {
                    OFFSET 2.33842 -0.294052 0.168128
                  }
                }
              }
              JOINT lPinky1
              {
                OFFSET 8.27202 -0.0477905 -0.4584
                CHANNELS 3 Zrotation Xrotation Yrotation
                JOINT lPinky2
                {
                  OFFSET 1.82734 -0.647385 -0.700984
                  CHANNELS 3 Zrotation Xrotation Yrotation
                  End Site
                  {
                    OFFSET 1.69225 -0.51767 -0.607171
                  }
                }
              }
            }
          }
        }
      }
    }
  }
  JOINT rButtock
  {
    OFFSET -8.77824 4.35084 1.2192
    CHANNELS 3 Zrotation Xrotation Yrotation
    JOINT rThigh
    {
      OFFSET 0 -1.70687 -2.19456
      CHANNELS 3 Zrotation Xrotation Yrotation
      JOINT rShin
      {
        OFFSET 0 -36.8199 0.73152
        CHANNELS 3 Zrotation Xrotation Yrotation
        JOINT rFoot
        {
          OFFSET 0.73152 -45.1104 -5.12064
          CHANNELS 3 Zrotation Xrotation Yrotation
          End Site
          {
            OFFSET -1.1221 -3.69964 12.103
          }
        }
      }
    }
  }
  JOINT lButtock
  {
    OFFSET 8.77824 4.35084 1.2192
    CHANNELS 3 Zrotation Xrotation Yrotation
    JOINT lThigh
    {
      OFFSET 0 -1.70687 -2.19456
      CHANNELS 3 Zrotation Xrotation Yrotation
      JOINT lShin
      {
        OFFSET 0 -36.8199 0.73152
        CHANNELS 3 Zrotation Xrotation Yrotation
        JOINT lFoot
        {
          OFFSET -0.73152 -45.1104 -5.12064
          CHANNELS 3 Zrotation Xrotation Yrotation
          End Site
          {
            OFFSET 1.1221 -3.69964 12.103
          }
        }
      }
    }
  }
}
MOTION
Frames:	5
Frame Time:	0.03333
12.9664 68.58539999999999 -17.7348 -5.186008 -56.529088 12.768765 -3.113665 13.925169 -87.682244 9.145026 -1.964664 101.736539 -5.379227 34.314158 -142.953471 22.949929 44.457995 174.402448 -9.3e-05 0.0 -0.003387 -0.005762 -0.0 0.002352 -157.051999 -15.068671 164.151074 -15.107713 -12.773447 -7.837495 113.42252 -10.565905 -60.214072 175.792554 31.006786 159.114326 -167.443587 -5.12021 89.830272 20.455348 -60.187281 20.427567 -58.109853 42.363537 46.930018 -6.879985 18.914967 1.69467 9.790979 -30.699583 -3.235924 -162.770805 -2.899809 143.11327 -145.079308 -2.628846 -178.302644 12.109774 28.733529 -5.729411 -96.429861 -47.943961 -94.684925 5.489057 5.769285 0.500649 155.194235 -1.538283 -161.41378 33.915948 68.853689 17.996222 167.615581 14.365669 79.41996 27.63473 -69.388228 28.824494 164.967417 -2.641435 -89.616401 143.642075 4.629116 -71.792368 -169.438572 -65.911884 -109.862491 173.206932 -41.727662 -113.455444 -25.221441 -62.955635 -2.250374 -16.767624 -39.634844 0.393056 -0.003732 0.708028 -0.221266 156.499176 -23.352246 -174.585828 114.249536 -38.983779 112.251566 -14.835275 35.703738 -5.97711 -0.000875 -0.000141 -0.001565 -68.149057 -57.430612 -13.943564 74.512629 40.915006 22.809426 -105.401295 -19.895727 145.626329 0.067075 -0.001011 0.049722 -9.133022 -47.513932 -22.506039 -75.134615 71.892951 176.721419 124.339711 -84.410634 45.317336
12.9214 68.6434 -18.1909 -5.950327 -58.441103 13.427921 -5.41444 11.33772 179.131822 -0.982832 6.712777 -164.606575 6.286792 33.083088 151.623125 -26.252713 39.132955 -103.086275 0.002854 -0.0 -0.00069 0.002854 -0.0 -0.00069 -157.679117 -66.558099 175.831992 42.273889 64.443725 -37.857814 -5.776077 -0.12755 94.156194 -9.366552 57.55981 8.657783 -3.385588 3.306618 0.615487 11.831508 -15.224738 -6.601486 -160.351786 -33.598897 122.706509 -156.709715 -9.499999 119.356116 -179.075698 -56.518327 142.607285 -169.608757 -23.421241 143.998147 -0.00841 -0.787687 -0.24842 11.63733 -31.935064 -3.826768 -148.500745 23.324905 -144.686284 -160.694426 51.120767 -146.831658 -2.380645 -17.480656 3.531785 -70.603239 23.715755 -4.669246 -69.167156 61.871272 -46.608429 21.172824 -32.199008 5.290242 -0.130783 -0.129136 0.020509 -61.301534 -77.660785 4.671603 -106.812933 -76.297221 -56.218512 -1.747853 23.384822 0.183617 -5.348727 -16.599382 2.377625 20.73478 45.167185 -16.729522 145.11273 -0.43659 178.991304 155.626985 2.968232 179.595595 25.177386 -37.80557 24.24554 144.880233 6.214725 142.017247 -0.000936 -0.001185 -0.001133 -69.352831 -58.235377 168.476707 -62.969578 -43.149298 116.417688 -79.613856 23.342423 38.299522 0.004024 0.000606 0.002867 -8.675349 -47.665834 -10.05502 -87.959713 79.732563 -112.651132 130.984313 56.224535 120.710594
12.8416 68.6524 -18.6547 -7.031241 -60.103822 14.292493 -3.346217 12.041323 -136.286135 5.811917 4.695117 150.360259 -6.175802 33.974703 -138.554175 25.371037 42.394236 170.432342 -0.003167 -0.0 4e-05 0.002558 0.0 6e-05 3.59228 -30.993513 -6.017559 -134.662191 39.483534 174.213441 -172.807993 -28.848563 -85.676788 -12.769647 63.319671 10.551413 -0.039439 0.038252 0.006375 27.316273 -45.379068 -17.19542 -153.948622 -21.990347 121.867559 -155.557269 -4.55283 119.120487 4.732198 -14.613641 -2.170128 -4.023889 19.103185 3.774028 -145.108781 -0.884596 -178.849553 -152.26569 -25.240281 -175.293475 20.879969 70.924351 12.970749 -6.707523 -18.109199 -7.824965 -3.962443 -37.065694 7.142686 99.801439 -18.313034 165.097984 117.804271 -1.787155 34.197286 163.486226 -43.014707 -168.535726 0.690452 0.679505 -0.109779 10.529347 11.188384 -9.422562 0.560537 0.903924 -0.319077 6.471188 22.458288 -6.470974 158.296412 0.462056 -142.019581 34.639018 54.849256 -29.368639 -0.002435 2.409931 -0.757197 -5.037794 37.839456 -6.647299 -0.976679 2.608631 -0.897865 -2.272137 -0.451095 0.120622 -0.00045 8.4e-05 -0.000696 -68.676957 -54.578821 -2.915853 61.206914 35.11256 -67.52377 51.747526 -17.973754 -47.942531 -0.001342 8.4e-05 -0.00139 -8.154664 -50.024564 179.662567 -102.969469 -87.760266 -152.843972 -88.822902 78.120616 -26.972438
12.6939 68.6789 -19.1783 -8.221787 -61.67402 15.212845 -7.222284 13.70928 92.978742 -9.149325 -2.636418 -78.176563 0.13795 15.301173 14.94865 -1.554137 -28.502452 24.451577 9.9e-05 -0.0 -0.003265 0.000295 0.0 0.001503 -26.351987 55.924276 28.669574 -137.262284 21.815771 136.85835 179.229149 70.84627 -82.408601 -18.082164 69.465294 14.229232 -175.26862 -12.91629 89.802505 -37.010003 -25.027332 3.026805 -151.544032 -17.515197 121.194212 -9.35938 33.410622 1.114288 -158.690081 -0.683305 142.237887 -156.541535 13.812007 139.926932 -0.004325 3.169973 0.996272 -17.175365 70.274504 29.853769 30.280108 82.459053 7.659476 -113.293265 -43.336823 -110.957957 -3.716683 -32.829224 6.353999 113.449009 46.935839 169.510505 162.06186 39.448012 -30.720734 135.759137 32.095814 -126.166676 2.172974 2.131106 -0.37268 16.726007 15.912007 -15.721991 -172.018536 -64.503839 -111.680763 -2.792404 21.980747 2.735813 0.304548 0.886691 -0.1707 156.325146 14.737312 -140.115865 145.108336 3.591358 -179.742893 154.773622 -9.668622 177.939166 132.160858 -18.656222 129.690625 138.826156 -9.031894 135.591963 0.001084 -0.000754 -0.00025 -67.82298 -55.498273 -159.379451 -70.368488 -9.206686 177.886169 -121.832371 -1.4118 114.310462 0.000996 -0.001718 0.000908 -6.804585 -47.841361 -10.488725 -47.210359 80.876177 131.365854 -63.951799 20.999369 -40.115594
12.469199999999999 68.5649 -19.6742 -9.341915 -63.151664 16.09595 -4.084211 11.533755 -163.962719 1.939424 6.452561 178.430764 -11.119089 22.705979 -61.779678 38.970717 -0.614287 103.682874 -0.002821 0.0 -0.001969 0.002712 -0.0 -0.0009 -153.404706 8.326762 159.104519 160.988391 -41.303074 171.690491 -127.573266 67.881765 3.681113 103.566069 -60.914697 98.148912 -1.331808 1.310247 0.220113 53.702176 -73.155464 -9.860859 -164.335986 -40.205002 122.484707 -179.32461 -48.219144 112.514468 -157.195154 3.5994 141.382112 30.440181 -60.521826 7.418383 -0.017435 -1.492104 -0.467822 -153.38366 19.135807 169.10371 -142.30977 3.566986 -139.242002 -43.870332 -49.270494 -44.6063 27.73389 56.873401 -30.087785 93.006652 11.974242 -102.576757 173.103429 -61.20807 73.091982 23.708256 -63.448543 22.319372 170.074467 -7.756859 -89.942444 5.774241 -50.011448 -7.198321 4.271241 6.591625 -2.575708 2.909559 17.846486 -4.298404 149.385012 22.194598 -135.961532 7.535614 26.425928 -6.530153 0.006741 -0.684293 0.216314 152.733405 24.352148 -168.173768 -14.037116 48.478729 -11.389589 -18.620917 56.615774 -8.878973 -179.995886 75.748318 -0.002882 145.217527 0.903693 89.110348 63.31029 12.82126 -100.082176 -18.120472 31.648599 15.292086 179.993936 75.750096 0.005225 175.893672 25.350487 -175.30104 69.707045 -77.381919 157.483906 118.818728 -42.334087 178.721935
